<svg width="199" height="354" viewBox="0 0 199 354" fill="none" xmlns="http://www.w3.org/2000/svg">
<g id="undraw_responsive_6c8s 1">
<g id="plant">
<path id="Vector" opacity="0.6" d="M100.465 225.029C100.465 225.029 81.4653 142.029 123.465 35.0289" stroke="#4D3EBE" stroke-width="3" stroke-miterlimit="10"/>
<path id="Vector_2" d="M102.615 107.389C102.615 107.389 107.965 79.5289 163.965 67.5289C163.965 67.5289 146.105 125.149 100.035 122.839L102.615 107.389Z" fill="#C664E9"/>
<path id="Vector_3" d="M121.355 40.5289C121.355 40.5289 135.965 14.5289 170.965 22.5289C170.965 22.5289 142.035 71.7889 115.965 55.6589L121.355 40.5289Z" fill="#D78CF8"/>
<path id="Vector_4" d="M112.095 68.1189C112.095 68.1189 110.965 41.5289 81.9653 34.5289C81.9653 34.5289 84.9653 92.5289 107.965 83.0289L112.095 68.1189Z" fill="#C664E9"/>
<path id="Vector_5" opacity="0.3" d="M116.465 56.0289C116.465 56.0289 154.465 27.0289 170.465 22.0289" stroke="#535461" stroke-miterlimit="10"/>
<path id="Vector_6" d="M98.0753 138.659C98.0753 138.659 103.965 109.529 68.9653 82.5289C68.9653 82.5289 30.9653 147.199 96.4453 159.359L98.0753 138.659Z" fill="#D78CF8"/>
<path id="Vector_7" d="M97.0253 178.699C97.0253 178.699 92.9653 137.529 136.965 129.529C136.965 129.529 120.895 187.019 96.9653 197.269L97.0253 178.699Z" fill="#C664E9"/>
<path id="Vector_8" opacity="0.3" d="M99.9653 122.529C99.9653 122.529 145.965 73.5289 163.965 67.5289" stroke="#535461" stroke-miterlimit="10"/>
<path id="Vector_9" opacity="0.3" d="M68.9653 82.5289C68.9653 82.5289 83.9653 150.529 95.9653 159.529" stroke="#535461" stroke-miterlimit="10"/>
<path id="Vector_10" opacity="0.3" d="M96.9653 197.529C96.9653 197.529 120.965 131.529 136.965 129.529" stroke="#535461" stroke-miterlimit="10"/>
<path id="Vector_11" opacity="0.3" d="M81.9653 34.5289C81.9653 34.5289 109.965 72.5289 107.965 82.5289" stroke="#535461" stroke-miterlimit="10"/>
</g>
<g id="mid">
<rect id="Rectangle 1" x="58.0443" y="225.029" width="89.524" height="15" rx="6" transform="rotate(0.169342 58.0443 225.029)" fill="#E851CA"/>
</g>
<g id="plot">
<path id="Vector_12" d="M62.8756 240.293H142.047C142.047 240.293 157.666 277.293 133.43 332.293H70.9543C70.9543 332.293 48.3338 294.293 62.8756 240.293Z" fill="#472C8F"/>
</g>
</g>
</svg>
